<svg xmlns="http://www.w3.org/2000/svg" viewBox="0 0 20 20"><defs><style>.cls-1{fill:#fff;}</style></defs><g id="Layer_2" data-name="Layer 2"><g id="Layer_1-2" data-name="Layer 1"><path class="cls-1" d="M17.35,16.63l-2-.2a.7.7,0,0,0-.37.09q-.73.38-1.44.78a.72.72,0,0,0-.25.24c-.27.56-.54,1.13-.79,1.69a1.14,1.14,0,0,1-1,.68,12.37,12.37,0,0,1-3,0,1.08,1.08,0,0,1-.91-.63c-.27-.58-.54-1.16-.82-1.74a.62.62,0,0,0-.25-.23c-.47-.27-.94-.53-1.42-.77a.78.78,0,0,0-.39-.1c-.66.05-1.32.13-2,.19a1.12,1.12,0,0,1-1-.42A10,10,0,0,1,.1,13.7a1,1,0,0,1,.13-1.07c.4-.5.79-1,1.18-1.51a.59.59,0,0,0,.1-.34c0-.53,0-1,0-1.57a.53.53,0,0,0-.1-.32C1,8.39.65,7.89.25,7.39A1,1,0,0,1,.11,6.27a10.08,10.08,0,0,1,1.5-2.44A1.16,1.16,0,0,1,2.7,3.38c.65.07,1.3.14,2,.19a.86.86,0,0,0,.41-.1c.47-.25.94-.5,1.4-.76a.63.63,0,0,0,.26-.25c.28-.56.54-1.13.8-1.69a1.13,1.13,0,0,1,1-.68,12.29,12.29,0,0,1,3,0,1.09,1.09,0,0,1,.92.63c.27.58.54,1.16.82,1.73a.58.58,0,0,0,.25.24c.47.27.94.53,1.42.78a.75.75,0,0,0,.39.09c.66,0,1.32-.13,2-.19a1.12,1.12,0,0,1,1.05.42,10,10,0,0,1,1.55,2.52,1,1,0,0,1-.14,1c-.4.5-.79,1-1.18,1.51a.59.59,0,0,0-.1.34c0,.5,0,1,0,1.5a.69.69,0,0,0,.16.47c.37.47.73,1,1.11,1.41a1,1,0,0,1,.14,1.13,10.16,10.16,0,0,1-1.54,2.48A1.11,1.11,0,0,1,17.35,16.63ZM14.25,10A4.11,4.11,0,0,0,10,6a4.13,4.13,0,0,0-4.27,4A4.13,4.13,0,0,0,10,14,4.11,4.11,0,0,0,14.25,10Z"/></g></g></svg>