<svg xmlns="http://www.w3.org/2000/svg" viewBox="0 0 154.61 20.36"><defs><style>.cls-1{fill:#fff;}</style></defs><g id="Layer_2" data-name="Layer 2"><g id="Layer_1-2" data-name="Layer 1"><path class="cls-1" d="M35,13.37H31.76v4.86a2.28,2.28,0,0,1-.49,1.59,1.61,1.61,0,0,1-1.24.54,1.64,1.64,0,0,1-1.27-.54,2.24,2.24,0,0,1-.48-1.56V5a2.15,2.15,0,0,1,.53-1.64,2.39,2.39,0,0,1,1.68-.5H35a11.39,11.39,0,0,1,3,.31,4.42,4.42,0,0,1,3,2.63A6,6,0,0,1,41.39,8a4.89,4.89,0,0,1-1.62,4A7.37,7.37,0,0,1,35,13.37ZM34.11,5.5H31.76v5.25h2.35a7.13,7.13,0,0,0,2.06-.26,2.35,2.35,0,0,0,1.26-.85,2.57,2.57,0,0,0,.43-1.53,2.57,2.57,0,0,0-.67-1.85C36.69,5.75,35.66,5.5,34.11,5.5Z"/><path class="cls-1" d="M55.13,13.85a7.78,7.78,0,0,1-.44,2.64,6,6,0,0,1-1.29,2.07,5.69,5.69,0,0,1-2,1.33,7.57,7.57,0,0,1-5.25,0,5.82,5.82,0,0,1-3.3-3.41,7.6,7.6,0,0,1-.44-2.63,7.58,7.58,0,0,1,.45-2.66,5.79,5.79,0,0,1,1.28-2.06,5.59,5.59,0,0,1,2-1.32,7.1,7.1,0,0,1,2.62-.46,7,7,0,0,1,2.63.47,5.64,5.64,0,0,1,2,1.33,5.83,5.83,0,0,1,1.28,2.06A7.46,7.46,0,0,1,55.13,13.85Zm-3.21,0a4.85,4.85,0,0,0-.86-3,2.81,2.81,0,0,0-2.31-1.09,2.92,2.92,0,0,0-1.66.49A3.14,3.14,0,0,0,46,11.64a5.78,5.78,0,0,0-.39,2.21A5.64,5.64,0,0,0,46,16a3,3,0,0,0,1.09,1.44,3,3,0,0,0,4-.6A4.81,4.81,0,0,0,51.92,13.85Z"/><path class="cls-1" d="M68.29,14.09v4.25a2.2,2.2,0,0,1-.45,1.51,1.56,1.56,0,0,1-1.21.51,1.49,1.49,0,0,1-1.18-.51A2.2,2.2,0,0,1,65,18.34v-5.1a17.52,17.52,0,0,0-.08-1.87,2.11,2.11,0,0,0-.45-1.1,1.44,1.44,0,0,0-1.15-.43,2,2,0,0,0-2.06,1.08,7.48,7.48,0,0,0-.5,3.1v4.32a2.23,2.23,0,0,1-.45,1.51,1.64,1.64,0,0,1-2.38,0,2.18,2.18,0,0,1-.47-1.51V9.19a2,2,0,0,1,.42-1.37A1.37,1.37,0,0,1,59,7.35a1.45,1.45,0,0,1,1.09.44A1.63,1.63,0,0,1,60.51,9v.3a5.65,5.65,0,0,1,1.78-1.46,4.77,4.77,0,0,1,2.11-.47,4.23,4.23,0,0,1,2.08.48A3.9,3.9,0,0,1,67.91,9.3a5.38,5.38,0,0,1,1.73-1.45,4.39,4.39,0,0,1,2-.48A4.58,4.58,0,0,1,74,7.89a3.21,3.21,0,0,1,1.42,1.47,6.84,6.84,0,0,1,.41,2.73v6.25a2.15,2.15,0,0,1-.46,1.51,1.66,1.66,0,0,1-2.39,0,2.18,2.18,0,0,1-.47-1.51V13a14.11,14.11,0,0,0-.08-1.65,1.86,1.86,0,0,0-.48-1,1.49,1.49,0,0,0-1.17-.43,2.16,2.16,0,0,0-1.2.38,2.5,2.5,0,0,0-.89,1A8.11,8.11,0,0,0,68.29,14.09Z"/><path class="cls-1" d="M90.86,13.85a7.78,7.78,0,0,1-.44,2.64,6,6,0,0,1-1.29,2.07,5.69,5.69,0,0,1-2,1.33,7.57,7.57,0,0,1-5.25,0,5.82,5.82,0,0,1-3.3-3.41,7.6,7.6,0,0,1-.44-2.63,7.58,7.58,0,0,1,.45-2.66,5.79,5.79,0,0,1,1.28-2.06,5.59,5.59,0,0,1,2-1.32,7.1,7.1,0,0,1,2.62-.46,7,7,0,0,1,2.63.47,5.64,5.64,0,0,1,2,1.33,5.83,5.83,0,0,1,1.28,2.06A7.46,7.46,0,0,1,90.86,13.85Zm-3.21,0a4.85,4.85,0,0,0-.86-3,2.81,2.81,0,0,0-2.31-1.09,2.92,2.92,0,0,0-1.66.49,3.14,3.14,0,0,0-1.1,1.44,5.78,5.78,0,0,0-.38,2.21A5.64,5.64,0,0,0,81.72,16a3,3,0,0,0,1.09,1.44,2.84,2.84,0,0,0,1.67.5,2.79,2.79,0,0,0,2.31-1.1A4.81,4.81,0,0,0,87.65,13.85Z"/><path class="cls-1" d="M93.12,7.63h.77v-1a6.06,6.06,0,0,1,.38-2.39A2.4,2.4,0,0,1,95.56,3a6.22,6.22,0,0,1,2.49-.4c1.86,0,2.8.46,2.8,1.37a1.06,1.06,0,0,1-.3.76.9.9,0,0,1-.69.32A4.38,4.38,0,0,1,99.22,5a4.86,4.86,0,0,0-.78-.07,1.12,1.12,0,0,0-1.11.51,3.51,3.51,0,0,0-.24,1.46v.76h.78c1.22,0,1.83.37,1.83,1.1,0,.52-.16.86-.49,1a3.44,3.44,0,0,1-1.34.21h-.78v8.47a2.1,2.1,0,0,1-.46,1.45,1.51,1.51,0,0,1-1.16.5,1.46,1.46,0,0,1-1.13-.5,2.1,2.1,0,0,1-.45-1.45V9.94H93a1.68,1.68,0,0,1-1.1-.32,1.05,1.05,0,0,1-.39-.84C91.52,8,92.05,7.63,93.12,7.63Z"/><path class="cls-1" d="M113,13.85a7.54,7.54,0,0,1-.44,2.64,6,6,0,0,1-1.29,2.07,5.6,5.6,0,0,1-2,1.33,7.57,7.57,0,0,1-5.25,0,5.88,5.88,0,0,1-2-1.35,5.74,5.74,0,0,1-1.28-2.06,7.37,7.37,0,0,1-.44-2.63,7.58,7.58,0,0,1,.44-2.66A5.79,5.79,0,0,1,102,9.13a5.67,5.67,0,0,1,2-1.32,7.1,7.1,0,0,1,2.62-.46,6.88,6.88,0,0,1,2.63.47,5.64,5.64,0,0,1,2,1.33,5.83,5.83,0,0,1,1.28,2.06A7.46,7.46,0,0,1,113,13.85Zm-3.21,0a4.79,4.79,0,0,0-.86-3,2.8,2.8,0,0,0-2.31-1.09,2.87,2.87,0,0,0-1.65.49,3.09,3.09,0,0,0-1.11,1.44,6,6,0,0,0-.38,2.21,5.64,5.64,0,0,0,.38,2.19A3.11,3.11,0,0,0,105,17.48a2.84,2.84,0,0,0,1.67.5,2.78,2.78,0,0,0,2.31-1.1A4.75,4.75,0,0,0,109.82,13.85Z"/><path class="cls-1" d="M127,16.39a2.74,2.74,0,0,1-.36,1.28,4.44,4.44,0,0,1-1.09,1.3,5.6,5.6,0,0,1-1.85,1,7.77,7.77,0,0,1-2.5.37,6.09,6.09,0,0,1-4.63-1.73A6.38,6.38,0,0,1,114.93,14a7.75,7.75,0,0,1,.76-3.48,5.49,5.49,0,0,1,2.21-2.34,6.82,6.82,0,0,1,3.44-.83,6.9,6.9,0,0,1,2.28.37,6,6,0,0,1,1.76.93,4.6,4.6,0,0,1,1.1,1.23,2.36,2.36,0,0,1,.38,1.21,1.28,1.28,0,0,1-.43,1,1.47,1.47,0,0,1-1,.39,1,1,0,0,1-.66-.2,3.36,3.36,0,0,1-.6-.66,4.89,4.89,0,0,0-1.22-1.34,3,3,0,0,0-3.91.66,4.79,4.79,0,0,0-.87,3,5.79,5.79,0,0,0,.23,1.66,3.72,3.72,0,0,0,.64,1.29,2.87,2.87,0,0,0,1,.81,3.17,3.17,0,0,0,1.31.27,3,3,0,0,0,1.65-.44,3.87,3.87,0,0,0,1.21-1.36,3.31,3.31,0,0,1,.64-.85,1.19,1.19,0,0,1,.83-.3,1.23,1.23,0,0,1,1,.45A1.4,1.4,0,0,1,127,16.39Z"/><path class="cls-1" d="M138.12,18.55v-.41a7.32,7.32,0,0,1-1.2,1.22,4.41,4.41,0,0,1-1.39.73,5.61,5.61,0,0,1-1.71.24,4.46,4.46,0,0,1-2.08-.48,3.55,3.55,0,0,1-1.42-1.32,5.85,5.85,0,0,1-.6-2.93V9.26a2.08,2.08,0,0,1,.44-1.44,1.48,1.48,0,0,1,1.14-.47,1.54,1.54,0,0,1,1.18.48,2.06,2.06,0,0,1,.44,1.43v5.12a7.69,7.69,0,0,0,.19,1.87,2.22,2.22,0,0,0,.67,1.18,1.93,1.93,0,0,0,1.32.43,2.66,2.66,0,0,0,1.52-.48,2.8,2.8,0,0,0,1-1.26,10,10,0,0,0,.27-3V9.26a2.06,2.06,0,0,1,.44-1.43,1.52,1.52,0,0,1,1.16-.48,1.5,1.5,0,0,1,1.15.47,2.08,2.08,0,0,1,.43,1.44v9.27a2,2,0,0,1-.41,1.37,1.48,1.48,0,0,1-2.16,0A2,2,0,0,1,138.12,18.55Z"/><path class="cls-1" d="M154.61,16.17a3.93,3.93,0,0,1-.64,2.27,4,4,0,0,1-1.91,1.43,8.61,8.61,0,0,1-3.06.49,7.48,7.48,0,0,1-2.95-.53,4.28,4.28,0,0,1-1.82-1.32,2.68,2.68,0,0,1-.59-1.59A1.23,1.23,0,0,1,144,16a1.3,1.3,0,0,1,.95-.38,1.13,1.13,0,0,1,.77.25,2.88,2.88,0,0,1,.52.69,3.57,3.57,0,0,0,1.17,1.28,3.57,3.57,0,0,0,1.87.42,2.68,2.68,0,0,0,1.58-.43,1.2,1.2,0,0,0,.62-1,1.35,1.35,0,0,0-.64-1.24,8.15,8.15,0,0,0-2.11-.73,17.43,17.43,0,0,1-2.69-.87,4.37,4.37,0,0,1-1.65-1.18,2.72,2.72,0,0,1-.63-1.82,3.24,3.24,0,0,1,.58-1.82,3.94,3.94,0,0,1,1.69-1.36,6.5,6.5,0,0,1,2.7-.51,8.56,8.56,0,0,1,2.24.26,5.46,5.46,0,0,1,1.65.69,3.46,3.46,0,0,1,1,1,1.86,1.86,0,0,1,.34,1,1.16,1.16,0,0,1-.37.9,1.42,1.42,0,0,1-1.05.35,1.26,1.26,0,0,1-.83-.28,6,6,0,0,1-.8-.84,2.89,2.89,0,0,0-.85-.75,2.67,2.67,0,0,0-1.34-.28,2.59,2.59,0,0,0-1.44.37,1.07,1.07,0,0,0-.57.92,1,1,0,0,0,.42.82,3.56,3.56,0,0,0,1.14.54c.47.14,1.13.31,2,.51a10.2,10.2,0,0,1,2.44.87,4,4,0,0,1,1.43,1.19A2.64,2.64,0,0,1,154.61,16.17Z"/><path class="cls-1" d="M10.18,0A10.18,10.18,0,1,0,20.36,10.18,10.18,10.18,0,0,0,10.18,0ZM17,7.4l-8,8a1.28,1.28,0,0,1-1.8,0L3.34,11.62a1.27,1.27,0,0,1,1.8-1.8l2.93,2.93L15.22,5.6a1.27,1.27,0,0,1,1.8,0A1.29,1.29,0,0,1,17,7.4Z"/></g></g></svg>