<svg xmlns="http://www.w3.org/2000/svg" viewBox="0 0 176 50.14"><defs><style>.cls-1{fill:#777;}</style></defs><g id="Layer_2" data-name="Layer 2"><g id="Layer_1-2" data-name="Layer 1"><g id="PoBeQc.tif"><path class="cls-1" d="M24,0h2a4,4,0,0,0,.47.11c1.33.18,2.68.25,4,.55A24.55,24.55,0,0,1,46.13,11.75a23.75,23.75,0,0,1,3.76,11.82A2.26,2.26,0,0,0,50,24v2a2.66,2.66,0,0,0-.11.47,22.06,22.06,0,0,1-.82,5.11,24.68,24.68,0,0,1-10.89,14.6,23.9,23.9,0,0,1-11.75,3.71A2.26,2.26,0,0,0,26,50H24a4,4,0,0,0-.47-.11c-1.33-.18-2.68-.25-4-.55A24.55,24.55,0,0,1,3.87,38.25,23.75,23.75,0,0,1,.11,26.43,2.26,2.26,0,0,0,0,26V24a4,4,0,0,0,.11-.47c.18-1.33.25-2.68.55-4A24.55,24.55,0,0,1,11.75,3.87,23.75,23.75,0,0,1,23.57.11,2.26,2.26,0,0,0,24,0ZM21.21,42.62h6c.58,0,.58,0,.58-.59V27.2c0-.58,0-.58.59-.58h4.38c.27,0,.41,0,.46-.36.22-1.84.47-3.68.72-5.52.06-.47,0-.52-.47-.52H28.22c-.27,0-.44,0-.44-.37,0-1.3,0-2.61,0-3.92a2.33,2.33,0,0,1,2.61-2.56c1.11,0,2.22,0,3.33,0,.37,0,.48-.11.48-.48,0-1.47,0-2.94,0-4.42,0-.82,0-.82-.79-.92-.15,0-.3-.06-.45-.07-1.48,0-3-.13-4.45-.07a7.34,7.34,0,0,0-5.1,2.13A7.78,7.78,0,0,0,21.23,15c-.07,1.59,0,3.19,0,4.79,0,.4-.12.49-.5.48h-4.5c-.33,0-.43.11-.43.43,0,1.85,0,3.7,0,5.55,0,.35.12.44.46.44,1.47,0,2.94,0,4.41,0,.55,0,.55,0,.55.55V42.62Z"/></g><path class="cls-1" d="M149.65,13.51h-4.4v9.87h4.4a13.19,13.19,0,0,0,3.86-.49,4.48,4.48,0,0,0,2.37-1.58,4.78,4.78,0,0,0,.81-2.89A4.89,4.89,0,0,0,155.44,15Q154,13.51,149.65,13.51Z"/><path class="cls-1" d="M151,0a25,25,0,1,0,25,25A25,25,0,0,0,151,0Zm9.28,25.76q-3,2.55-9.05,2.55h-6v9.13a4.23,4.23,0,0,1-.93,3,3,3,0,0,1-2.33,1,3.05,3.05,0,0,1-2.38-1,4.23,4.23,0,0,1-.9-2.93V12.61a4.07,4.07,0,0,1,1-3.08,4.49,4.49,0,0,1,3.15-.92h8.38a22.15,22.15,0,0,1,5.73.57A8.44,8.44,0,0,1,160.38,11a8.25,8.25,0,0,1,2.19,3.12,11,11,0,0,1,.75,4.16Q163.32,23.23,160.28,25.76Z"/><g id="QR8yIC.tif"><path class="cls-1" d="M113.08,25.16A25,25,0,1,1,88.58.1,25,25,0,0,1,113.08,25.16ZM73.77,34.4c0,.13,0,.2.07.22a5.6,5.6,0,0,0,.61.38A17.13,17.13,0,0,0,99.79,20.15a2,2,0,0,1,.77-1.63c.76-.66,1.42-1.45,2.13-2.18l-.16-.17-2.52.67-.09-.19a6,6,0,0,0,2-2.86c-1.06.4-2,.72-2.85,1.07a1.33,1.33,0,0,1-1.44-.31,6,6,0,0,0-9.86,4.81c0,1.21,0,1.25-1.24,1.07A17.06,17.06,0,0,1,76.14,15c-.21-.22-.44-.42-.77-.72a6.71,6.71,0,0,0,1.42,8l-2.21-.61a6.26,6.26,0,0,0,4.06,5.78l-.1.18-1.82.12a6.26,6.26,0,0,0,5.42,4.17A12.42,12.42,0,0,1,73.77,34.4Z"/></g></g></g></svg>