<svg xmlns="http://www.w3.org/2000/svg" viewBox="0 0 20 20"><defs><style>.cls-1{fill:#fff;}</style></defs><g id="Layer_2" data-name="Layer 2"><g id="Layer_1-2" data-name="Layer 1"><path class="cls-1" d="M9.69,0h1a1.64,1.64,0,0,1,.54.07h0a10,10,0,0,1,8.72,9,8.32,8.32,0,0,1-.05,2.17,9.91,9.91,0,0,1-5,7.46,10,10,0,0,1-4,1.26,6.54,6.54,0,0,1-2.16-.06c-.49-.1-1-.16-1.48-.29A10,10,0,0,1,.08,11.25a.08.08,0,0,0,0,0A1,1,0,0,1,0,10.87V9.22a2.09,2.09,0,0,1,.08-.5h0a18.06,18.06,0,0,1,.41-1.8A9.83,9.83,0,0,1,8.74.08h0A7.61,7.61,0,0,1,9.69,0ZM16.2,16.5A9,9,0,0,0,9.45,1,9,9,0,0,0,1.33,12.55a9.29,9.29,0,0,0,2.37,4c.24-2.34,1.69-3.56,3.76-4.24A4,4,0,0,1,5.94,9,3.6,3.6,0,0,1,8.43,5.46a4.59,4.59,0,0,1,3.08,0,3.62,3.62,0,0,1,1.68,1.18,4.11,4.11,0,0,1-.55,5.46l-.2.18C14.47,13,15.94,14.21,16.2,16.5Z"/></g></g></svg>